# xmcd CD database file
#
# Track frame offsets:
#	187
#	21750
#	44362
#
# Disc length: 875 seconds
#
# Revision: 0
# Processed by: cddbd v1.5PL3 Copyright (c) Steve Scherf et al.
# Submitted via: CDex 1.51
#
DISCID=1c036903
DTITLE=鈴里真帆 - TSU-YO-GA-RI
DYEAR=1995
DGENRE=JPop
TTITLE0=TSU-YO-GA-RI
TTITLE1=YES
TTITLE2=TSU-YO-GA-RI (Vocalless)
EXTD=YEAR: 1995
EXTT0=
EXTT1=
EXTT2=
PLAYORDER=
